<?xml version="1.0" encoding="UTF-8" standalone="no"?>
<!DOCTYPE svg PUBLIC "-//W3C//DTD SVG 1.1//EN" "http://www.w3.org/Graphics/SVG/1.1/DTD/svg11.dtd">
<!-- 由 Microsoft Visio, SVG Export 生成 logo_white.svg 页-1 -->
<svg xmlns="http://www.w3.org/2000/svg" xmlns:xlink="http://www.w3.org/1999/xlink" xmlns:ev="http://www.w3.org/2001/xml-events"
		xmlns:v="http://schemas.microsoft.com/visio/2003/SVGExtensions/" width="3.03264in" height="0.983635in"
		viewBox="0 0 218.35 70.8217" xml:space="preserve" color-interpolation-filters="sRGB" class="st3">
	<v:documentProperties v:langID="2052" v:metric="true" v:viewMarkup="false"/>

	<style type="text/css">
	<![CDATA[
		.st1 {fill:#ffffff;stroke:#ffffff;stroke-width:0.75}
		.st2 {fill:#ffffff;stroke:#ffffff;stroke-width:0.25}
		.st3 {fill:none;fill-rule:evenodd;font-size:12px;overflow:visible;stroke-linecap:square;stroke-miterlimit:3}
	]]>
	</style>

	<g v:mID="0" v:index="1" v:groupContext="foregroundPage">
		<title>页-1</title>
		<v:pageProperties v:drawingScale="0.0393701" v:pageScale="0.0393701" v:drawingUnits="24" v:shadowOffsetX="8.50394"
				v:shadowOffsetY="-8.50394"/>
		<g id="shape1114-1" v:mID="1114" v:groupContext="shape" transform="translate(77.2018,-0.927444)">
			<title>工作表.1114</title>
			<path d="M4.94 43.14 L5.2 45.46 L21.2 41.84 L23.78 70.82 L17.55 70.82 L18.59 46.18 L5.2 47.63 L6.5 70.82 L0 70.82 L1.69
						 43.14 L4.94 43.14 Z" class="st1"/>
		</g>
		<g id="shape1115-3" v:mID="1115" v:groupContext="shape" transform="translate(155.888,-0.75)">
			<title>工作表.1115</title>
			<path d="M9.34 19.91 L8.89 52.52 L19.97 40.79 L23.41 45.41 L13.83 53.1 L25.36 70.58 L17.87 70.58 L11.59 54.64 L8.89 57.04
						 L8.44 70.79 L0 70.82 L6.57 19.87 L9.34 19.91 Z" class="st1"/>
		</g>
		<g id="group1116-5" transform="translate(42.7933,-0.927444)" v:mID="1116" v:groupContext="group">
			<title>工作表.1116</title>
			<g id="shape1117-6" v:mID="1117" v:groupContext="shape" transform="translate(0,-0.0276056)">
				<title>工作表.1117</title>
				<path d="M24.2 46.91 L10.58 46.91 L6.98 55.22 L11.16 64.05 L21.89 62.22 L24.25 64.09 L9.9 70.82 L0 56.36 L8.75 41.86
							 L24.16 41.86 L24.2 46.91 Z" class="st2"/>
			</g>
			<g id="shape1118-8" v:mID="1118" v:groupContext="shape" transform="translate(21.8851,0)">
				<title>工作表.1118</title>
				<path d="M8.99 70.79 L2.8 41.84 L0 41.84 L0 70.82 L8.99 70.79 Z" class="st2"/>
			</g>
		</g>
		<g id="group1119-10" transform="translate(104.603,-0.779446)" v:mID="1119" v:groupContext="group">
			<title>工作表.1119</title>
			<g id="group1120-11" transform="translate(1.07758,-35.6128)" v:mID="1120" v:groupContext="group">
				<title>工作表.1120</title>
				<g id="shape1121-12" v:mID="1121" v:groupContext="shape">
					<title>工作表.1121</title>
					<path d="M0 64.93 L3.99 64.93 L3.99 70.82 L1.23 70.82 L0 64.93 Z" class="st1"/>
				</g>
				<g id="shape1122-14" v:mID="1122" v:groupContext="shape" transform="translate(6.32791,-1.13687E-013) scale(-1,1)">
					<title>工作表.1122</title>
					<path d="M0 64.93 L3.99 64.93 L3.99 70.82 L1.23 70.82 L0 64.93 Z" class="st1"/>
				</g>
			</g>
			<g id="group1123-16" v:mID="1123" v:groupContext="group">
				<title>工作表.1123</title>
				<g id="shape1124-17" v:mID="1124" v:groupContext="shape">
					<title>工作表.1124</title>
					<path d="M2.37 41.63 L5.04 41.63 L5.04 70.82 L0 70.82 L2.37 41.63 Z" class="st1"/>
				</g>
				<g id="shape1125-19" v:mID="1125" v:groupContext="shape" transform="translate(8.48307,0) scale(-1,1)">
					<title>工作表.1125</title>
					<path d="M2.37 41.63 L5.04 41.63 L5.04 70.82 L0 70.82 L2.37 41.63 Z" class="st1"/>
				</g>
			</g>
		</g>
		<g id="group1126-21" transform="translate(184.689,-0.927444)" v:mID="1126" v:groupContext="group">
			<title>工作表.1126</title>
			<g id="group1127-22" transform="translate(1.07758,-35.6128)" v:mID="1127" v:groupContext="group">
				<title>工作表.1127</title>
				<g id="shape1128-23" v:mID="1128" v:groupContext="shape">
					<title>工作表.1128</title>
					<path d="M0 64.93 L3.99 64.93 L3.99 70.82 L1.23 70.82 L0 64.93 Z" class="st1"/>
				</g>
				<g id="shape1129-25" v:mID="1129" v:groupContext="shape" transform="translate(6.32791,-1.13687E-013) scale(-1,1)">
					<title>工作表.1129</title>
					<path d="M0 64.93 L3.99 64.93 L3.99 70.82 L1.23 70.82 L0 64.93 Z" class="st1"/>
				</g>
			</g>
			<g id="group1130-27" v:mID="1130" v:groupContext="group">
				<title>工作表.1130</title>
				<g id="shape1131-28" v:mID="1131" v:groupContext="shape">
					<title>工作表.1131</title>
					<path d="M2.37 41.63 L5.04 41.63 L5.04 70.82 L0 70.82 L2.37 41.63 Z" class="st1"/>
				</g>
				<g id="shape1132-30" v:mID="1132" v:groupContext="shape" transform="translate(8.48307,0) scale(-1,1)">
					<title>工作表.1132</title>
					<path d="M2.37 41.63 L5.04 41.63 L5.04 70.82 L0 70.82 L2.37 41.63 Z" class="st1"/>
				</g>
			</g>
		</g>
		<g id="group1133-32" transform="translate(208.829,-0.927444)" v:mID="1133" v:groupContext="group">
			<title>工作表.1133</title>
			<g id="shape1134-33" v:mID="1134" v:groupContext="shape">
				<title>工作表.1134</title>
				<path d="M2.75 20.37 L5.3 20.37 L5.3 70.82 L0 70.82 L2.75 20.37 Z" class="st1"/>
			</g>
			<g id="shape1135-35" v:mID="1135" v:groupContext="shape" transform="translate(8.77127,0) scale(-1,1)">
				<title>工作表.1135</title>
				<path d="M2.75 20.37 L5.3 20.37 L5.3 70.82 L0 70.82 L2.75 20.37 Z" class="st1"/>
			</g>
		</g>
		<g id="group1136-37" transform="translate(196.615,-0.927444)" v:mID="1136" v:groupContext="group">
			<title>工作表.1136</title>
			<g id="shape1137-38" v:mID="1137" v:groupContext="shape">
				<title>工作表.1137</title>
				<path d="M2.75 20.37 L5.3 20.37 L5.3 70.82 L0 70.82 L2.75 20.37 Z" class="st1"/>
			</g>
			<g id="shape1138-40" v:mID="1138" v:groupContext="shape" transform="translate(8.77127,0) scale(-1,1)">
				<title>工作表.1138</title>
				<path d="M2.75 20.37 L5.3 20.37 L5.3 70.82 L0 70.82 L2.75 20.37 Z" class="st1"/>
			</g>
		</g>
		<g id="group1139-42" transform="translate(0.75,-0.927444)" v:mID="1139" v:groupContext="group">
			<title>工作表.1139</title>
			<g id="shape1140-43" v:mID="1140" v:groupContext="shape">
				<title>工作表.1140</title>
				<path d="M17.39 20.37 L21.41 45.47 L21.41 58.31 L19.47 58.31 L11.71 32.37 L9.51 70.82 L0 70.82 L6.95 20.37 L17.39
							 20.37 Z" class="st1"/>
			</g>
			<g id="shape1141-45" v:mID="1141" v:groupContext="shape" transform="translate(42.4462,2.55795E-013) scale(-1,1)">
				<title>工作表.1141</title>
				<path d="M17.39 20.37 L21.41 45.47 L21.41 58.31 L19.47 58.31 L11.71 32.37 L9.51 70.82 L0 70.82 L6.95 20.37 L17.39
							 20.37 Z" class="st1"/>
			</g>
		</g>
		<g id="group1142-47" transform="translate(116.71,-0.779446)" v:mID="1142" v:groupContext="group">
			<title>工作表.1142</title>
			<g id="shape1143-48" v:mID="1143" v:groupContext="shape" transform="translate(6.81111,-0.329888)">
				<title>工作表.1143</title>
				<path d="M16.85 56.65 L6.43 66.59 L23.46 70.82 L26.23 64.9 L29.68 57.45 L29.23 56.95 L10.34 32.27 L20.75 23.54 L33.12
							 24.26 L37.51 12.48 L34.25 10.67 L30.67 19.49 L21.34 18.84 L22.7 8 L30.51 6.01 L29.54 1.86 L18.47 4.39
							 L16.52 18.84 L0 32.17 L16.85 56.65 Z" class="st1"/>
			</g>
			<g id="shape1144-50" v:mID="1144" v:groupContext="shape">
				<title>矩形.1010</title>
				<v:userDefs>
					<v:ud v:nameU="visVersion" v:val="VT0(15):26"/>
				</v:userDefs>
				<rect x="0" y="65.4786" width="30.2717" height="5.34312" class="st2"/>
			</g>
		</g>
	</g>
</svg>
