<?xml version="1.0" encoding="UTF-8" standalone="no"?>
<!DOCTYPE svg PUBLIC "-//W3C//DTD SVG 1.1//EN" "http://www.w3.org/Graphics/SVG/1.1/DTD/svg11.dtd">
<!-- 由 Microsoft Visio, SVG Export 生成 logo.svg 页-1 -->
<svg xmlns="http://www.w3.org/2000/svg" xmlns:xlink="http://www.w3.org/1999/xlink" xmlns:ev="http://www.w3.org/2001/xml-events"
		xmlns:v="http://schemas.microsoft.com/visio/2003/SVGExtensions/" width="3.03264in" height="0.983635in"
		viewBox="0 0 218.35 70.8217" xml:space="preserve" color-interpolation-filters="sRGB" class="st4">
	<v:documentProperties v:langID="2052" v:metric="true" v:viewMarkup="false"/>

	<style type="text/css">
	<![CDATA[
		.st1 {fill:#595959;stroke:#595959;stroke-width:0.75}
		.st2 {fill:#595959;stroke:#595959;stroke-width:0.25}
		.st3 {fill:#595959;stroke:none;stroke-width:0.75}
		.st4 {fill:none;fill-rule:evenodd;font-size:12px;overflow:visible;stroke-linecap:square;stroke-miterlimit:3}
	]]>
	</style>

	<g v:mID="0" v:index="1" v:groupContext="foregroundPage">
		<title>页-1</title>
		<v:pageProperties v:drawingScale="0.0393701" v:pageScale="0.0393701" v:drawingUnits="24" v:shadowOffsetX="8.50394"
				v:shadowOffsetY="-8.50394"/>
		<g id="shape1076-1" v:mID="1076" v:groupContext="shape" transform="translate(77.2018,-0.927444)">
			<title>工作表.1076</title>
			<path d="M4.94 43.14 L5.2 45.46 L21.2 41.84 L23.78 70.82 L17.55 70.82 L18.59 46.18 L5.2 47.63 L6.5 70.82 L0 70.82 L1.69
						 43.14 L4.94 43.14 Z" class="st1"/>
		</g>
		<g id="shape1077-3" v:mID="1077" v:groupContext="shape" transform="translate(155.888,-0.75)">
			<title>工作表.1077</title>
			<path d="M9.34 19.91 L8.89 52.52 L19.97 40.79 L23.41 45.41 L13.83 53.1 L25.36 70.58 L17.87 70.58 L11.59 54.64 L8.89 57.04
						 L8.44 70.79 L0 70.82 L6.57 19.87 L9.34 19.91 Z" class="st1"/>
		</g>
		<g id="group1078-5" transform="translate(42.7933,-0.927444)" v:mID="1078" v:groupContext="group">
			<title>工作表.1078</title>
			<g id="shape1079-6" v:mID="1079" v:groupContext="shape" transform="translate(0,-0.0276056)">
				<title>工作表.1079</title>
				<path d="M24.2 46.91 L10.58 46.91 L6.98 55.22 L11.16 64.05 L21.89 62.22 L24.25 64.09 L9.9 70.82 L0 56.36 L8.75 41.86
							 L24.16 41.86 L24.2 46.91 Z" class="st2"/>
			</g>
			<g id="shape1080-8" v:mID="1080" v:groupContext="shape" transform="translate(21.8851,0)">
				<title>工作表.1080</title>
				<path d="M8.99 70.79 L2.8 41.84 L0 41.84 L0 70.82 L8.99 70.79 Z" class="st2"/>
			</g>
		</g>
		<g id="group1081-10" transform="translate(104.603,-0.779446)" v:mID="1081" v:groupContext="group">
			<title>工作表.1081</title>
			<g id="group1082-11" transform="translate(1.07758,-35.6128)" v:mID="1082" v:groupContext="group">
				<title>工作表.1082</title>
				<g id="shape1083-12" v:mID="1083" v:groupContext="shape">
					<title>工作表.1083</title>
					<path d="M0 64.93 L3.99 64.93 L3.99 70.82 L1.23 70.82 L0 64.93 Z" class="st1"/>
				</g>
				<g id="shape1084-14" v:mID="1084" v:groupContext="shape" transform="translate(6.32791,-1.13687E-013) scale(-1,1)">
					<title>工作表.1084</title>
					<path d="M0 64.93 L3.99 64.93 L3.99 70.82 L1.23 70.82 L0 64.93 Z" class="st1"/>
				</g>
			</g>
			<g id="group1085-16" v:mID="1085" v:groupContext="group">
				<title>工作表.1085</title>
				<g id="shape1086-17" v:mID="1086" v:groupContext="shape">
					<title>工作表.1086</title>
					<path d="M2.37 41.63 L5.04 41.63 L5.04 70.82 L0 70.82 L2.37 41.63 Z" class="st1"/>
				</g>
				<g id="shape1087-19" v:mID="1087" v:groupContext="shape" transform="translate(8.48307,0) scale(-1,1)">
					<title>工作表.1087</title>
					<path d="M2.37 41.63 L5.04 41.63 L5.04 70.82 L0 70.82 L2.37 41.63 Z" class="st1"/>
				</g>
			</g>
		</g>
		<g id="group1088-21" transform="translate(184.689,-0.927444)" v:mID="1088" v:groupContext="group">
			<title>工作表.1088</title>
			<g id="group1089-22" transform="translate(1.07758,-35.6128)" v:mID="1089" v:groupContext="group">
				<title>工作表.1089</title>
				<g id="shape1090-23" v:mID="1090" v:groupContext="shape">
					<title>工作表.1090</title>
					<path d="M0 64.93 L3.99 64.93 L3.99 70.82 L1.23 70.82 L0 64.93 Z" class="st1"/>
				</g>
				<g id="shape1091-25" v:mID="1091" v:groupContext="shape" transform="translate(6.32791,-1.13687E-013) scale(-1,1)">
					<title>工作表.1091</title>
					<path d="M0 64.93 L3.99 64.93 L3.99 70.82 L1.23 70.82 L0 64.93 Z" class="st1"/>
				</g>
			</g>
			<g id="group1092-27" v:mID="1092" v:groupContext="group">
				<title>工作表.1092</title>
				<g id="shape1093-28" v:mID="1093" v:groupContext="shape">
					<title>工作表.1093</title>
					<path d="M2.37 41.63 L5.04 41.63 L5.04 70.82 L0 70.82 L2.37 41.63 Z" class="st1"/>
				</g>
				<g id="shape1094-30" v:mID="1094" v:groupContext="shape" transform="translate(8.48307,0) scale(-1,1)">
					<title>工作表.1094</title>
					<path d="M2.37 41.63 L5.04 41.63 L5.04 70.82 L0 70.82 L2.37 41.63 Z" class="st1"/>
				</g>
			</g>
		</g>
		<g id="group1097-32" transform="translate(208.829,-0.927444)" v:mID="1097" v:groupContext="group">
			<title>工作表.1097</title>
			<g id="shape1098-33" v:mID="1098" v:groupContext="shape">
				<title>工作表.1098</title>
				<path d="M2.75 20.37 L5.3 20.37 L5.3 70.82 L0 70.82 L2.75 20.37 Z" class="st1"/>
			</g>
			<g id="shape1099-35" v:mID="1099" v:groupContext="shape" transform="translate(8.77127,0) scale(-1,1)">
				<title>工作表.1099</title>
				<path d="M2.75 20.37 L5.3 20.37 L5.3 70.82 L0 70.82 L2.75 20.37 Z" class="st1"/>
			</g>
		</g>
		<g id="group1100-37" transform="translate(196.615,-0.927444)" v:mID="1100" v:groupContext="group">
			<title>工作表.1100</title>
			<g id="shape1101-38" v:mID="1101" v:groupContext="shape">
				<title>工作表.1101</title>
				<path d="M2.75 20.37 L5.3 20.37 L5.3 70.82 L0 70.82 L2.75 20.37 Z" class="st1"/>
			</g>
			<g id="shape1102-40" v:mID="1102" v:groupContext="shape" transform="translate(8.77127,0) scale(-1,1)">
				<title>工作表.1102</title>
				<path d="M2.75 20.37 L5.3 20.37 L5.3 70.82 L0 70.82 L2.75 20.37 Z" class="st1"/>
			</g>
		</g>
		<g id="group1103-42" transform="translate(0.75,-0.927444)" v:mID="1103" v:groupContext="group">
			<title>工作表.1103</title>
			<g id="shape1104-43" v:mID="1104" v:groupContext="shape">
				<title>工作表.1104</title>
				<path d="M17.39 20.37 L21.41 45.47 L21.41 58.31 L19.47 58.31 L11.71 32.37 L9.51 70.82 L0 70.82 L6.95 20.37 L17.39
							 20.37 Z" class="st3"/>
			</g>
			<g id="shape1105-45" v:mID="1105" v:groupContext="shape" transform="translate(42.4462,2.55795E-013) scale(-1,1)">
				<title>工作表.1105</title>
				<path d="M17.39 20.37 L21.41 45.47 L21.41 58.31 L19.47 58.31 L11.71 32.37 L9.51 70.82 L0 70.82 L6.95 20.37 L17.39
							 20.37 Z" class="st3"/>
			</g>
		</g>
		<g id="group1113-47" transform="translate(116.71,-0.779446)" v:mID="1113" v:groupContext="group">
			<title>工作表.1113</title>
			<g id="shape1009-48" v:mID="1009" v:groupContext="shape" transform="translate(6.81111,-0.329888)">
				<title>工作表.1009</title>
				<path d="M16.85 56.65 L6.43 66.59 L23.46 70.82 L26.23 64.9 L29.68 57.45 L29.23 56.95 L10.34 32.27 L20.75 23.54 L33.12
							 24.26 L37.51 12.48 L34.25 10.67 L30.67 19.49 L21.34 18.84 L22.7 8 L30.51 6.01 L29.54 1.86 L18.47 4.39
							 L16.52 18.84 L0 32.17 L16.85 56.65 Z" class="st1"/>
			</g>
			<g id="shape1010-50" v:mID="1010" v:groupContext="shape">
				<title>矩形.1010</title>
				<v:userDefs>
					<v:ud v:nameU="visVersion" v:val="VT0(15):26"/>
				</v:userDefs>
				<rect x="0" y="65.4786" width="30.2717" height="5.34312" class="st2"/>
			</g>
		</g>
	</g>
</svg>
